<svg width="1584" height="396" viewBox="0 0 1584 396" fill="none" xmlns="http://www.w3.org/2000/svg">
<rect width="1584" height="396" fill="#F5F5F5"/>
<g id="Awesome banner" clip-path="url(#clip0_0_1)">
<rect width="1584" height="396" fill="url(#paint0_linear_0_1)"/>
<ellipse id="Ellipse 2" cx="323" cy="64" rx="285" ry="288" fill="url(#paint1_linear_0_1)" fill-opacity="0.1"/>
<g id="copyright">
<path d="M75.95 334.52L72.30 334.52L72.30 311.16L77.20 311.16L83.70 330.04Q83.60 329.02 83.50 327.62Q83.41 326.23 83.33 324.79Q83.25 323.35 83.25 322.23L83.25 311.16L86.90 311.16L86.90 334.52L82 334.52L75.57 315.64Q75.63 316.57 75.73 317.88Q75.82 319.19 75.89 320.57Q75.95 321.94 75.95 323.10L75.95 334.52M98.80 334.84Q96.46 334.84 94.67 333.96Q92.88 333.08 91.89 331.53Q90.90 329.98 90.90 327.93Q90.90 325.78 92.13 324.18Q93.36 322.58 95.34 322.17L95.34 322.10Q93.65 321.75 92.61 320.38Q91.57 319 91.57 317.11Q91.57 315.26 92.48 313.85Q93.39 312.44 95.02 311.64Q96.66 310.84 98.80 310.84Q100.94 310.84 102.59 311.64Q104.24 312.44 105.15 313.85Q106.06 315.26 106.06 317.11Q106.06 319 105.01 320.38Q103.95 321.75 102.26 322.10L102.26 322.17Q104.24 322.58 105.47 324.18Q106.70 325.78 106.70 327.93Q106.70 329.98 105.71 331.53Q104.72 333.08 102.93 333.96Q101.14 334.84 98.80 334.84M98.80 320.73Q100.30 320.73 101.23 319.82Q102.16 318.90 102.16 317.46Q102.16 315.99 101.23 315.08Q100.30 314.17 98.80 314.17Q97.30 314.17 96.37 315.08Q95.44 315.99 95.44 317.46Q95.44 318.90 96.37 319.82Q97.30 320.73 98.80 320.73M98.80 331.45Q100.56 331.45 101.68 330.42Q102.80 329.40 102.80 327.74Q102.80 326.04 101.68 325Q100.56 323.96 98.80 323.96Q97.04 323.96 95.92 325Q94.80 326.04 94.80 327.74Q94.80 329.40 95.92 330.42Q97.04 331.45 98.80 331.45M114.35 334.52L110.70 334.52L110.70 311.16L115.60 311.16L122.10 330.04Q122 329.02 121.90 327.62Q121.81 326.23 121.73 324.79Q121.65 323.35 121.65 322.23L121.65 311.16L125.30 311.16L125.30 334.52L120.40 334.52L113.97 315.64Q114.03 316.57 114.13 317.88Q114.22 319.19 114.29 320.57Q114.35 321.94 114.35 323.10" fill="white" fill-opacity="0.9"/>
<path d="M161.48 325.24L151.24 325.24L151.24 322.68L161.48 322.68" fill="white" fill-opacity="0.9"/>
<path d="M195.02 334.84Q191.82 334.84 189.96 333.05Q188.11 331.26 188.11 328.12L188.11 317.56Q188.11 314.42 189.96 312.63Q191.82 310.84 195.02 310.84Q198.15 310.84 200.01 312.65Q201.87 314.46 201.87 317.56L198.99 317.56Q198.99 315.58 197.95 314.50Q196.91 313.43 195.02 313.43Q193.13 313.43 192.06 314.50Q190.99 315.58 190.99 317.56L190.99 328.12Q190.99 330.10 192.06 331.18Q193.13 332.25 195.02 332.25Q196.91 332.25 197.95 331.18Q198.99 330.10 198.99 328.12L201.87 328.12Q201.87 331.22 200.01 333.03Q198.15 334.84 195.02 334.84" fill="white" fill-opacity="0.9"/>
<path d="M213.96 334.84Q210.83 334.84 209 333.02Q207.18 331.19 207.18 327.80L207.18 317.88Q207.18 314.49 209 312.66Q210.83 310.84 213.96 310.84Q217.10 310.84 218.92 312.66Q220.75 314.49 220.75 317.85L220.75 327.80Q220.75 331.19 218.92 333.02Q217.10 334.84 213.96 334.84M213.96 332.25Q215.85 332.25 216.86 331.18Q217.87 330.10 217.87 328.12L217.87 317.56Q217.87 315.58 216.86 314.50Q215.85 313.43 213.96 313.43Q212.11 313.43 211.08 314.50Q210.06 315.58 210.06 317.56L210.06 328.12Q210.06 330.10 211.08 331.18Q212.11 332.25 213.96 332.25" fill="white" fill-opacity="0.9"/>
<path d="M228.65 334.52L225.87 334.52L225.87 311.16L230.12 311.16L233.10 321.27L236.20 311.16L240.46 311.16L240.46 334.52L237.67 334.52L237.67 323.48Q237.67 321.91 237.72 319.88Q237.77 317.85 237.87 315.77Q237.96 313.69 238.09 312.02L234.31 324.09L231.82 324.09L228.20 312.31Q228.46 314.68 228.55 317.50Q228.65 320.31 228.65 323.48" fill="white" fill-opacity="0.9"/>
<path d="M247.85 334.52L245.07 334.52L245.07 311.16L249.32 311.16L252.30 321.27L255.40 311.16L259.66 311.16L259.66 334.52L256.87 334.52L256.87 323.48Q256.87 321.91 256.92 319.88Q256.97 317.85 257.07 315.77Q257.16 313.69 257.29 312.02L253.51 324.09L251.02 324.09L247.40 312.31Q247.66 314.68 247.75 317.50Q247.85 320.31 247.85 323.48" fill="white" fill-opacity="0.9"/>
<path d="M271.56 334.84Q268.30 334.84 266.57 333.03Q264.84 331.22 264.84 328.12L264.84 311.16L267.72 311.16L267.72 328.12Q267.72 330.04 268.67 331.16Q269.61 332.28 271.56 332.28Q273.48 332.28 274.44 331.16Q275.40 330.04 275.40 328.12L275.40 311.16L278.28 311.16L278.28 328.12Q278.28 331.26 276.57 333.05Q274.86 334.84 271.56 334.84" fill="white" fill-opacity="0.9"/>
<path d="M286.83 334.52L284.04 334.52L284.04 311.16L287.88 311.16L295.02 331.16Q294.95 330.36 294.87 329.19Q294.79 328.02 294.75 326.73Q294.70 325.43 294.70 324.28L294.70 311.16L297.48 311.16L297.48 334.52L293.64 334.52L286.54 314.52Q286.60 315.29 286.67 316.46Q286.73 317.62 286.78 318.92Q286.83 320.22 286.83 321.40" fill="white" fill-opacity="0.9"/>
<path d="M316.20 334.52L303.72 334.52L303.72 331.90L308.49 331.90L308.49 313.78L303.72 313.78L303.72 311.16L316.20 311.16L316.20 313.78L311.43 313.78L311.43 331.90L316.20 331.90" fill="white" fill-opacity="0.9"/>
<path d="M330.60 334.52L327.72 334.52L327.72 313.78L321.32 313.78L321.32 311.16L337 311.16L337 313.78L330.60 313.78" fill="white" fill-opacity="0.9"/>
<path d="M349.80 334.52L346.92 334.52L346.92 325.78L339.88 311.16L342.95 311.16L347.50 320.76Q347.88 321.56 348.11 322.12Q348.33 322.68 348.39 322.94Q348.46 322.68 348.70 322.12Q348.94 321.56 349.32 320.76L353.87 311.16L356.84 311.16L349.80 325.78" fill="white" fill-opacity="0.9"/>
<path d="M382.83 334.52L380.04 334.52L380.04 311.16L383.88 311.16L391.02 331.16Q390.95 330.36 390.87 329.19Q390.79 328.02 390.75 326.73Q390.70 325.43 390.70 324.28L390.70 311.16L393.48 311.16L393.48 334.52L389.64 334.52L382.54 314.52Q382.60 315.29 382.67 316.46Q382.73 317.62 382.78 318.92Q382.83 320.22 382.83 321.40" fill="white" fill-opacity="0.9"/>
<path d="M405.96 334.84Q402.83 334.84 401 333.02Q399.18 331.19 399.18 327.80L399.18 317.88Q399.18 314.49 401 312.66Q402.83 310.84 405.96 310.84Q409.10 310.84 410.92 312.66Q412.75 314.49 412.75 317.85L412.75 327.80Q412.75 331.19 410.92 333.02Q409.10 334.84 405.96 334.84M405.96 332.25Q407.85 332.25 408.86 331.18Q409.87 330.10 409.87 328.12L409.87 317.56Q409.87 315.58 408.86 314.50Q407.85 313.43 405.96 313.43Q404.11 313.43 403.08 314.50Q402.06 315.58 402.06 317.56L402.06 328.12Q402.06 330.10 403.08 331.18Q404.11 332.25 405.96 332.25" fill="white" fill-opacity="0.9"/>
<path d="M424.55 334.52L418.51 334.52L418.51 311.16L424.55 311.16Q426.83 311.16 428.47 312.02Q430.12 312.89 431.03 314.46Q431.95 316.02 431.95 318.17L431.95 327.48Q431.95 329.62 431.03 331.21Q430.12 332.79 428.47 333.66Q426.83 334.52 424.55 334.52M421.39 313.72L421.39 331.96L424.55 331.96Q426.67 331.96 427.87 330.78Q429.07 329.59 429.07 327.48L429.07 318.17Q429.07 316.09 427.87 314.90Q426.67 313.72 424.55 313.72" fill="white" fill-opacity="0.9"/>
<path d="M451.40 334.52L437.96 334.52L437.96 311.16L451.40 311.16L451.40 313.78L440.81 313.78L440.81 321.02L450.28 321.02L450.28 323.58L440.81 323.58L440.81 331.90L451.40 331.90" fill="white" fill-opacity="0.9"/>
<path d="M463.69 334.84Q460.30 334.84 458.28 333.05Q456.27 331.26 456.27 328.12L459.15 328.12Q459.15 330.07 460.39 331.18Q461.64 332.28 463.69 332.28Q465.67 332.28 466.86 331.13Q468.04 329.98 468.04 328.12Q468.04 326.71 467.29 325.67Q466.54 324.63 465.13 324.25L461.58 323.26Q459.37 322.62 458.11 320.97Q456.84 319.32 456.84 317.08Q456.84 315.22 457.67 313.82Q458.51 312.41 460.01 311.62Q461.51 310.84 463.47 310.84Q465.45 310.84 466.97 311.62Q468.49 312.41 469.35 313.80Q470.22 315.19 470.22 317.02L467.34 317.02Q467.34 315.42 466.25 314.41Q465.16 313.40 463.47 313.40Q461.77 313.40 460.71 314.41Q459.66 315.42 459.66 317.02Q459.66 318.30 460.35 319.21Q461.03 320.12 462.28 320.47L465.93 321.50Q468.27 322.14 469.56 323.91Q470.86 325.69 470.86 328.12Q470.86 331.19 468.91 333.02Q466.95 334.84 463.69 334.84" fill="white" fill-opacity="0.9"/>
</g>
<path d="M73.41 197.64L71.20 197.64L75.76 180.12L78.66 180.12L83.20 197.64L81.02 197.64L79.86 192.98L74.56 192.98L73.41 197.64M76.34 185.74L74.99 191.16L79.41 191.16L78.06 185.76Q77.68 184.22 77.46 183.19Q77.25 182.16 77.20 181.85Q77.15 182.16 76.94 183.19Q76.72 184.22 76.34 185.74" fill="white" fill-opacity="0.7"/>
<path d="M88.77 197.64L86.61 197.64L86.61 180.12L92.25 180.12Q94.70 180.12 96.15 181.52Q97.60 182.93 97.60 185.28Q97.60 187.63 96.15 189.04Q94.70 190.44 92.25 190.44L88.77 190.44L88.77 197.64M88.77 182.06L88.77 188.50L92.25 188.50Q93.66 188.50 94.52 187.62Q95.37 186.74 95.37 185.28Q95.37 183.79 94.52 182.93Q93.66 182.06 92.25 182.06" fill="white" fill-opacity="0.7"/>
<path d="M110.68 197.64L101.32 197.64L101.32 195.67L104.90 195.67L104.90 182.09L101.32 182.09L101.32 180.12L110.68 180.12L110.68 182.09L107.10 182.09L107.10 195.67L110.68 195.67" fill="white" fill-opacity="0.7"/>
<path d="M120.93 197.83L119.87 197.83Q117.66 197.83 116.45 196.84Q115.24 195.84 115.24 194.02L117.40 194.02Q117.40 194.93 118.05 195.44Q118.70 195.96 119.87 195.96L120.93 195.96Q122.13 195.96 122.79 195.43Q123.45 194.90 123.45 193.94Q123.45 192.24 121.89 192.02L118.24 191.50Q116.90 191.30 116.15 190.38Q115.41 189.46 115.41 187.94Q115.41 186.22 116.60 185.23Q117.78 184.25 119.87 184.25L120.93 184.25Q122.85 184.25 124.06 185.20Q125.27 186.14 125.37 187.68L123.18 187.68Q123.14 186.98 122.52 186.53Q121.91 186.07 120.93 186.07L119.87 186.07Q118.77 186.07 118.14 186.58Q117.52 187.08 117.52 187.94Q117.52 189.34 118.79 189.53L122.20 190.01Q125.56 190.49 125.56 193.94Q125.56 195.79 124.35 196.81Q123.14 197.83 120.93 197.83" fill="white" fill-opacity="0.7"/>
<path d="M149.97 197.88Q148.48 197.88 147.52 197.15Q146.56 196.42 146.39 195.12L146.37 195.12L146.37 197.64L144.21 197.64L144.21 180.12L146.37 180.12L146.37 183.96L146.32 186.96L146.34 186.96Q146.54 185.69 147.51 184.94Q148.48 184.20 149.97 184.20Q151.96 184.20 153.14 185.52Q154.31 186.84 154.31 189.12L154.31 192.98Q154.31 195.24 153.14 196.56Q151.96 197.88 149.97 197.88M149.25 196.01Q150.62 196.01 151.38 195.29Q152.15 194.57 152.15 192.96L152.15 189.12Q152.15 187.49 151.38 186.78Q150.62 186.07 149.25 186.07Q147.93 186.07 147.15 186.91Q146.37 187.75 146.37 189.24L146.37 192.84Q146.37 194.33 147.15 195.17Q147.93 196.01 149.25 196.01" fill="white" fill-opacity="0.7"/>
<path d="M162.93 201.96L160.67 201.96L162.62 196.82L157.70 184.44L160.02 184.44L163.14 192.60Q163.34 193.08 163.50 193.61Q163.67 194.14 163.74 194.52Q163.82 194.14 163.98 193.61Q164.15 193.08 164.32 192.60L167.22 184.44L169.50 184.44" fill="white" fill-opacity="0.7"/>
<path d="M191.94 197.64L187.41 197.64L187.41 180.12L191.94 180.12Q193.65 180.12 194.88 180.77Q196.12 181.42 196.80 182.59Q197.49 183.77 197.49 185.38L197.49 192.36Q197.49 193.97 196.80 195.16Q196.12 196.34 194.88 196.99Q193.65 197.64 191.94 197.64M189.57 182.04L189.57 195.72L191.94 195.72Q193.53 195.72 194.43 194.83Q195.33 193.94 195.33 192.36L195.33 185.38Q195.33 183.82 194.43 182.93Q193.53 182.04 191.94 182.04" fill="white" fill-opacity="0.7"/>
<path d="M204.45 197.64L202.29 197.64L202.29 184.44L204.45 184.44L204.45 186.96L204.50 186.96Q204.66 185.69 205.58 184.94Q206.49 184.20 208.02 184.20Q210.09 184.20 211.20 185.44Q212.32 186.67 212.32 188.95L212.32 190.08L210.16 190.08L210.16 188.95Q210.16 186.07 207.35 186.07Q205.94 186.07 205.19 186.89Q204.45 187.70 204.45 189.24" fill="white" fill-opacity="0.7"/>
<path d="M221.20 197.88Q220.31 197.88 219.77 197.35Q219.23 196.82 219.23 195.98Q219.23 195.10 219.77 194.54Q220.31 193.99 221.20 193.99Q222.09 193.99 222.63 194.54Q223.17 195.10 223.17 195.98Q223.17 196.82 222.63 197.35Q222.09 197.88 221.20 197.88" fill="white" fill-opacity="0.7"/>
<path d="M250.36 197.64L245.03 197.64L245.03 180.12LNaN 180.12Q252.40 180.12 253.76 181.32Q255.11 182.52 255.11 184.66Q255.11 186 254.26 187.08Q253.41 188.16 252.04 188.42L252.04 188.50Q253.07 188.62 253.85 189.22Q254.63 189.82 255.08 190.74Q255.52 191.66 255.52 192.77Q255.52 195.02 254.14 196.33Q252.76 197.64 250.36 197.64M247.14 182.06L247.14 187.58L249.98 187.58Q251.37 187.58 252.17 186.84Q252.98 186.10 252.98 184.82Q252.98 183.55 252.18 182.81Q251.39 182.06 NaN 182.06L247.14 182.06M247.14 189.46L247.14 195.70L250.12 195.70Q251.63 195.70 252.51 194.89Q253.38 194.09 253.38 192.70Q253.38 191.26 252.51 190.36Q251.63 189.46 250.12 189.46" fill="white" fill-opacity="0.7"/>
<path d="M263.25 197.88Q261.21 197.88 260.01 196.74Q258.81 195.60 258.81 193.75Q258.81 192.53 259.36 191.62Q259.91 190.70 260.90 190.19Q261.88 189.67 263.15 189.67L267.23 189.67L267.23 188.64Q267.23 186.07 264.42 186.07Q263.18 186.07 262.41 186.53Q261.64 186.98 261.59 187.80L259.43 187.80Q259.55 186.24 260.88 185.22Q262.22 184.20 264.42 184.20Q266.82 184.20 268.11 185.35Q269.39 186.50 269.39 188.57L269.39 197.64L267.26 197.64L267.26 195.24L267.21 195.24Q267.02 196.46 265.98 197.17Q264.95 197.88 263.25 197.88M263.78 196.06Q265.36 196.06 266.30 195.29Q267.23 194.52 267.23 193.20L267.23 191.35L263.39 191.35Q262.34 191.35 261.68 191.99Q261.02 192.62 261.02 193.68Q261.02 194.78 261.75 195.42Q262.48 196.06 263.78 196.06" fill="white" fill-opacity="0.7"/>
<path d="M279.57 197.88Q278.08 197.88 277.12 197.15Q276.16 196.42 275.99 195.12L275.97 195.12L275.97 197.64L273.81 197.64L273.81 180.12L275.97 180.12L275.97 183.96L275.92 186.96L275.94 186.96Q276.14 185.69 277.11 184.94Q278.08 184.20 279.57 184.20Q281.56 184.20 282.74 185.52Q283.91 186.84 283.91 189.12L283.91 192.98Q283.91 195.24 282.74 196.56Q281.56 197.88 279.57 197.88M278.85 196.01Q280.22 196.01 280.98 195.29Q281.75 194.57 281.75 192.96L281.75 189.12Q281.75 187.49 280.98 186.78Q280.22 186.07 278.85 186.07Q277.53 186.07 276.75 186.91Q275.97 187.75 275.97 189.24L275.97 192.84Q275.97 194.33 276.75 195.17Q277.53 196.01 278.85 196.01" fill="white" fill-opacity="0.7"/>
<path d="M292.05 197.88Q290.01 197.88 288.81 196.74Q287.61 195.60 287.61 193.75Q287.61 192.53 288.16 191.62Q288.71 190.70 289.70 190.19Q290.68 189.67 291.95 189.67L296.03 189.67L296.03 188.64Q296.03 186.07 293.22 186.07Q291.98 186.07 291.21 186.53Q290.44 186.98 290.39 187.80L288.23 187.80Q288.35 186.24 289.68 185.22Q291.02 184.20 293.22 184.20Q295.62 184.20 296.91 185.35Q298.19 186.50 298.19 188.57L298.19 197.64L296.06 197.64L296.06 195.24L296.01 195.24Q295.82 196.46 294.78 197.17Q293.75 197.88 292.05 197.88M292.58 196.06Q294.16 196.06 295.10 195.29Q296.03 194.52 296.03 193.20L296.03 191.35L292.19 191.35Q291.14 191.35 290.48 191.99Q289.82 192.62 289.82 193.68Q289.82 194.78 290.55 195.42Q291.28 196.06 292.58 196.06" fill="white" fill-opacity="0.7"/>
<path d="M308.13 197.83L307.07 197.83Q304.86 197.83 303.65 196.84Q302.44 195.84 302.44 194.02L304.60 194.02Q304.60 194.93 305.25 195.44Q305.90 195.96 307.07 195.96L308.13 195.96Q309.33 195.96 309.99 195.43Q310.65 194.90 310.65 193.94Q310.65 192.24 309.09 192.02L305.44 191.50Q304.10 191.30 303.35 190.38Q302.61 189.46 302.61 187.94Q302.61 186.22 303.80 185.23Q304.98 184.25 307.07 184.25L308.13 184.25Q310.05 184.25 311.26 185.20Q312.47 186.14 312.57 187.68L310.38 187.68Q310.34 186.98 309.72 186.53Q309.11 186.07 308.13 186.07L307.07 186.07Q305.97 186.07 305.34 186.58Q304.72 187.08 304.72 187.94Q304.72 189.34 305.99 189.53L309.40 190.01Q312.76 190.49 312.76 193.94Q312.76 195.79 311.55 196.81Q310.34 197.83 308.13 197.83" fill="white" fill-opacity="0.7"/>
<path d="M320.85 197.88Q318.81 197.88 317.61 196.74Q316.41 195.60 316.41 193.75Q316.41 192.53 316.96 191.62Q317.51 190.70 318.50 190.19Q319.48 189.67 320.75 189.67L324.83 189.67L324.83 188.64Q324.83 186.07 322.02 186.07Q320.78 186.07 320.01 186.53Q319.24 186.98 319.19 187.80L317.03 187.80Q317.15 186.24 318.48 185.22Q319.82 184.20 322.02 184.20Q324.42 184.20 325.71 185.35Q326.99 186.50 326.99 188.57L326.99 197.64L324.86 197.64L324.86 195.24L324.81 195.24Q324.62 196.46 323.58 197.17Q322.55 197.88 320.85 197.88M321.38 196.06Q322.96 196.06 323.90 195.29Q324.83 194.52 324.83 193.20L324.83 191.35L320.99 191.35Q319.94 191.35 319.28 191.99Q318.62 192.62 318.62 193.68Q318.62 194.78 319.35 195.42Q320.08 196.06 321.38 196.06" fill="white" fill-opacity="0.7"/>
<path d="M333.57 197.64L331.41 197.64L331.41 180.12L333.57 180.12L333.57 186.96L333.59 186.96Q333.76 185.64 334.67 184.92Q335.58 184.20 337.10 184.20Q339.09 184.20 340.26 185.42Q341.44 186.65 341.44 188.76L341.44 197.64L339.28 197.64L339.28 189.12Q339.28 187.63 338.52 186.83Q337.77 186.02 336.47 186.02Q335.13 186.02 334.35 186.86Q333.57 187.70 333.57 189.24" fill="white" fill-opacity="0.7"/>
<path d="M350.80 197.88Q348.47 197.88 347.04 196.48Q345.62 195.07 345.62 192.60L345.62 189.48Q345.62 187.01 347.04 185.60Q348.47 184.20 350.80 184.20Q352.36 184.20 353.52 184.82Q354.69 185.45 355.34 186.58Q355.98 187.70 355.98 189.24L355.98 191.59L347.73 191.59L347.73 192.84Q347.73 194.30 348.57 195.16Q349.41 196.01 350.80 196.01Q352 196.01 352.78 195.54Q353.56 195.07 353.73 194.28L355.89 194.28Q355.67 195.94 354.28 196.91Q352.89 197.88 350.80 197.88M347.73 189.24L347.73 189.91L353.87 189.91L353.87 189.24Q353.87 187.68 353.07 186.83Q352.26 185.98 350.80 185.98Q349.34 185.98 348.53 186.83Q347.73 187.68 347.73 189.24" fill="white" fill-opacity="0.7"/>
<path d="M365.97 197.88Q364.48 197.88 363.52 197.15Q362.56 196.42 362.39 195.12L362.37 195.12L362.37 197.64L360.21 197.64L360.21 180.12L362.37 180.12L362.37 183.96L362.32 186.96L362.34 186.96Q362.54 185.69 363.51 184.94Q364.48 184.20 365.97 184.20Q367.96 184.20 369.14 185.52Q370.31 186.84 370.31 189.12L370.31 192.98Q370.31 195.24 369.14 196.56Q367.96 197.88 365.97 197.88M365.25 196.01Q366.62 196.01 367.38 195.29Q368.15 194.57 368.15 192.96L368.15 189.12Q368.15 187.49 367.38 186.78Q366.62 186.07 365.25 186.07Q363.93 186.07 363.15 186.91Q362.37 187.75 362.37 189.24L362.37 192.84Q362.37 194.33 363.15 195.17Q363.93 196.01 365.25 196.01" fill="white" fill-opacity="0.7"/>
<path d="M390.21 197.64L388 197.64L392.56 180.12L395.46 180.12L400 197.64L397.82 197.64L396.66 192.98L391.36 192.98L390.21 197.64M393.14 185.74L391.79 191.16L396.21 191.16L394.86 185.76Q394.48 184.22 394.26 183.19Q394.05 182.16 394 181.85Q393.95 182.16 393.74 183.19Q393.52 184.22 393.14 185.74" fill="white" fill-opacity="0.7"/>
<path d="M404.66 197.64L402.64 197.64L402.64 184.44L404.51 184.44L404.51 186.19L404.56 186.19Q404.68 185.30 405.27 184.75Q405.86 184.20 406.77 184.20Q407.63 184.20 408.23 184.70Q408.83 185.21 409.10 186.07L409.12 186.07Q409.29 185.21 409.88 184.70Q410.46 184.20 411.38 184.20Q412.65 184.20 413.40 185.15Q414.16 186.10 414.16 187.61L414.16 197.64L412.14 197.64L412.14 187.58Q412.14 186.79 411.76 186.32Q411.38 185.86 410.70 185.86Q410.06 185.86 409.67 186.31Q409.29 186.77 409.29 187.56L409.29 197.64L407.51 197.64L407.51 187.58Q407.51 186.79 407.13 186.32Q406.74 185.86 406.10 185.86Q405.42 185.86 405.04 186.31Q404.66 186.77 404.66 187.56" fill="white" fill-opacity="0.7"/>
<path d="M423.57 197.88Q422.08 197.88 421.12 197.15Q420.16 196.42 419.99 195.12L419.97 195.12L419.97 197.64L417.81 197.64L417.81 180.12L419.97 180.12L419.97 183.96L419.92 186.96L419.94 186.96Q420.14 185.69 421.11 184.94Q422.08 184.20 423.57 184.20Q425.56 184.20 426.74 185.52Q427.91 186.84 427.91 189.12L427.91 192.98Q427.91 195.24 426.74 196.56Q425.56 197.88 423.57 197.88M422.85 196.01Q424.22 196.01 424.98 195.29Q425.75 194.57 425.75 192.96L425.75 189.12Q425.75 187.49 424.98 186.78Q424.22 186.07 422.85 186.07Q421.53 186.07 420.75 186.91Q419.97 187.75 419.97 189.24L419.97 192.84Q419.97 194.33 420.75 195.17Q421.53 196.01 422.85 196.01" fill="white" fill-opacity="0.7"/>
<path d="M437.20 197.88Q434.87 197.88 433.44 196.48Q432.02 195.07 432.02 192.60L432.02 189.48Q432.02 187.01 433.44 185.60Q434.87 184.20 437.20 184.20Q438.76 184.20 439.92 184.82Q441.09 185.45 441.74 186.58Q442.38 187.70 442.38 189.24L442.38 191.59L434.13 191.59L434.13 192.84Q434.13 194.30 434.97 195.16Q435.81 196.01 437.20 196.01Q438.40 196.01 439.18 195.54Q439.96 195.07 440.13 194.28L442.29 194.28Q442.07 195.94 440.68 196.91Q439.29 197.88 437.20 197.88M434.13 189.24L434.13 189.91L440.27 189.91L440.27 189.24Q440.27 187.68 439.47 186.83Q438.66 185.98 437.20 185.98Q435.74 185.98 434.93 186.83Q434.13 187.68 434.13 189.24" fill="white" fill-opacity="0.7"/>
<path d="M450.83 197.88Q448.86 197.88 447.68 196.56Q446.49 195.24 446.49 192.98L446.49 189.12Q446.49 186.84 447.66 185.52Q448.84 184.20 450.83 184.20Q452.32 184.20 453.29 184.94Q454.26 185.69 454.46 186.96L454.48 186.96L454.43 183.96L454.43 180.12L456.59 180.12L456.59 197.64L454.43 197.64L454.43 195.12L454.41 195.12Q454.24 196.42 453.28 197.15Q452.32 197.88 450.83 197.88M451.55 196.01Q452.90 196.01 453.66 195.17Q454.43 194.33 454.43 192.84L454.43 189.24Q454.43 187.75 453.66 186.91Q452.90 186.07 451.55 186.07Q450.18 186.07 449.42 186.78Q448.65 187.49 448.65 189.12L448.65 192.96Q448.65 194.57 449.42 195.29Q450.18 196.01 451.55 196.01" fill="white" fill-opacity="0.7"/>
<path d="M463.29 197.64L461.13 197.64L461.13 180.12L463.29 180.12L463.29 189.89L465.81 189.89L469.50 184.44L471.98 184.44L467.73 190.73L472.22 197.64L469.70 197.64L465.86 191.76L463.29 191.76" fill="white" fill-opacity="0.7"/>
<path d="M479.25 197.88Q477.21 197.88 476.01 196.74Q474.81 195.60 474.81 193.75Q474.81 192.53 475.36 191.62Q475.91 190.70 476.90 190.19Q477.88 189.67 479.15 189.67L483.23 189.67L483.23 188.64Q483.23 186.07 480.42 186.07Q479.18 186.07 478.41 186.53Q477.64 186.98 477.59 187.80L475.43 187.80Q475.55 186.24 476.88 185.22Q478.22 184.20 480.42 184.20Q482.82 184.20 484.11 185.35Q485.39 186.50 485.39 188.57L485.39 197.64L483.26 197.64L483.26 195.24L483.21 195.24Q483.02 196.46 481.98 197.17Q480.95 197.88 479.25 197.88M479.78 196.06Q481.36 196.06 482.30 195.29Q483.23 194.52 483.23 193.20L483.23 191.35L479.39 191.35Q478.34 191.35 477.68 191.99Q477.02 192.62 477.02 193.68Q477.02 194.78 477.75 195.42Q478.48 196.06 479.78 196.06" fill="white" fill-opacity="0.7"/>
<path d="M492.45 197.64L490.29 197.64L490.29 184.44L492.45 184.44L492.45 186.96L492.50 186.96Q492.66 185.69 493.58 184.94Q494.49 184.20 496.02 184.20Q498.09 184.20 499.20 185.44Q500.32 186.67 500.32 188.95L500.32 190.08L498.16 190.08L498.16 188.95Q498.16 186.07 495.35 186.07Q493.94 186.07 493.19 186.89Q492.45 187.70 492.45 189.24" fill="white" fill-opacity="0.7"/>
<path d="M520.77 197.64L518.63 197.64L518.63 180.12L524.03 180.12Q525.59 180.12 526.77 180.76Q527.94 181.39 528.59 182.52Q529.24 183.65 529.24 185.16Q529.24 186.94 528.33 188.21Q527.42 189.48 525.90 189.98L529.48 197.64L527.10 197.64L523.67 190.20L520.77 190.20L520.77 197.64M520.77 182.06L520.77 188.26L524.03 188.26Q525.38 188.26 526.19 187.40Q527.01 186.55 527.01 185.16Q527.01 183.74 526.19 182.90Q525.38 182.06 524.03 182.06" fill="white" fill-opacity="0.7"/>
<path d="M538 197.88Q535.67 197.88 534.24 196.48Q532.82 195.07 532.82 192.60L532.82 189.48Q532.82 187.01 534.24 185.60Q535.67 184.20 538 184.20Q539.56 184.20 540.72 184.82Q541.89 185.45 542.54 186.58Q543.18 187.70 543.18 189.24L543.18 191.59L534.93 191.59L534.93 192.84Q534.93 194.30 535.77 195.16Q536.61 196.01 538 196.01Q539.20 196.01 539.98 195.54Q540.76 195.07 540.93 194.28L543.09 194.28Q542.87 195.94 541.48 196.91Q540.09 197.88 538 197.88M534.93 189.24L534.93 189.91L541.07 189.91L541.07 189.24Q541.07 187.68 540.27 186.83Q539.46 185.98 538 185.98Q536.54 185.98 535.73 186.83Q534.93 187.68 534.93 189.24" fill="white" fill-opacity="0.7"/>
<path d="M552.93 197.83L551.87 197.83Q549.66 197.83 548.45 196.84Q547.24 195.84 547.24 194.02L549.40 194.02Q549.40 194.93 550.05 195.44Q550.70 195.96 551.87 195.96L552.93 195.96Q554.13 195.96 554.79 195.43Q555.45 194.90 555.45 193.94Q555.45 192.24 553.89 192.02L550.24 191.50Q548.90 191.30 548.15 190.38Q547.41 189.46 547.41 187.94Q547.41 186.22 548.60 185.23Q549.78 184.25 551.87 184.25L552.93 184.25Q554.85 184.25 556.06 185.20Q557.27 186.14 557.37 187.68L555.18 187.68Q555.14 186.98 554.52 186.53Q553.91 186.07 552.93 186.07L551.87 186.07Q550.77 186.07 550.14 186.58Q549.52 187.08 549.52 187.94Q549.52 189.34 550.79 189.53L554.20 190.01Q557.56 190.49 557.56 193.94Q557.56 195.79 556.35 196.81Q555.14 197.83 552.93 197.83" fill="white" fill-opacity="0.7"/>
<path d="M566.80 197.88Q564.47 197.88 563.04 196.48Q561.62 195.07 561.62 192.60L561.62 189.48Q561.62 187.01 563.04 185.60Q564.47 184.20 566.80 184.20Q568.36 184.20 569.52 184.82Q570.69 185.45 571.34 186.58Q571.98 187.70 571.98 189.24L571.98 191.59L563.73 191.59L563.73 192.84Q563.73 194.30 564.57 195.16Q565.41 196.01 566.80 196.01Q568 196.01 568.78 195.54Q569.56 195.07 569.73 194.28L571.89 194.28Q571.67 195.94 570.28 196.91Q568.89 197.88 566.80 197.88M563.73 189.24L563.73 189.91L569.87 189.91L569.87 189.24Q569.87 187.68 569.07 186.83Q568.26 185.98 566.80 185.98Q565.34 185.98 564.53 186.83Q563.73 187.68 563.73 189.24" fill="white" fill-opacity="0.7"/>
<path d="M580.05 197.88Q578.01 197.88 576.81 196.74Q575.61 195.60 575.61 193.75Q575.61 192.53 576.16 191.62Q576.71 190.70 577.70 190.19Q578.68 189.67 579.95 189.67L584.03 189.67L584.03 188.64Q584.03 186.07 581.22 186.07Q579.98 186.07 579.21 186.53Q578.44 186.98 578.39 187.80L576.23 187.80Q576.35 186.24 577.68 185.22Q579.02 184.20 581.22 184.20Q583.62 184.20 584.91 185.35Q586.19 186.50 586.19 188.57L586.19 197.64L584.06 197.64L584.06 195.24L584.01 195.24Q583.82 196.46 582.78 197.17Q581.75 197.88 580.05 197.88M580.58 196.06Q582.16 196.06 583.10 195.29Q584.03 194.52 584.03 193.20L584.03 191.35L580.19 191.35Q579.14 191.35 578.48 191.99Q577.82 192.62 577.82 193.68Q577.82 194.78 578.55 195.42Q579.28 196.06 580.58 196.06" fill="white" fill-opacity="0.7"/>
<path d="M593.25 197.64L591.09 197.64L591.09 184.44L593.25 184.44L593.25 186.96L593.30 186.96Q593.46 185.69 594.38 184.94Q595.29 184.20 596.82 184.20Q598.89 184.20 600 185.44Q601.12 186.67 601.12 188.95L601.12 190.08L598.96 190.08L598.96 188.95Q598.96 186.07 596.15 186.07Q594.74 186.07 593.99 186.89Q593.25 187.70 593.25 189.24" fill="white" fill-opacity="0.7"/>
<path d="M610.19 197.88Q607.79 197.88 606.35 196.54Q604.91 195.19 604.91 192.84L604.91 189.24Q604.91 186.89 606.35 185.54Q607.79 184.20 610.19 184.20Q612.47 184.20 613.88 185.42Q615.28 186.65 615.35 188.76L613.19 188.76Q613.12 187.49 612.33 186.80Q611.54 186.12 610.19 186.12Q608.78 186.12 607.92 186.92Q607.07 187.73 607.07 189.22L607.07 192.84Q607.07 194.33 607.92 195.14Q608.78 195.96 610.19 195.96Q611.54 195.96 612.33 195.26Q613.12 194.57 613.19 193.32L615.35 193.32Q615.28 195.43 613.88 196.66Q612.47 197.88 610.19 197.88" fill="white" fill-opacity="0.7"/>
<path d="M621.57 197.64L619.41 197.64L619.41 180.12L621.57 180.12L621.57 186.96L621.59 186.96Q621.76 185.64 622.67 184.92Q623.58 184.20 625.10 184.20Q627.09 184.20 628.26 185.42Q629.44 186.65 629.44 188.76L629.44 197.64L627.28 197.64L627.28 189.12Q627.28 187.63 626.52 186.83Q625.77 186.02 624.47 186.02Q623.13 186.02 622.35 186.86Q621.57 187.70 621.57 189.24" fill="white" fill-opacity="0.7"/>
<path d="M651.16 197.86Q649.05 197.86 647.82 196.62Q646.60 195.38 646.60 193.27L646.60 191.90Q646.60 189.98 647.68 188.83Q648.76 187.68 650.58 187.58L649.91 186.72Q648.62 185.02 648.62 183.70Q648.62 181.99 649.77 180.94Q650.92 179.88 652.77 179.88Q654.09 179.88 655.08 180.46Q656.08 181.03 656.64 182.05Q657.21 183.07 657.21 184.44L655.10 184.44Q655.10 183.24 654.46 182.48Q653.82 181.73 652.77 181.73Q651.88 181.73 651.32 182.28Q650.75 182.83 650.75 183.74Q650.75 184.68 651.45 185.57L656.13 191.62L658.31 188.88L660.71 188.88L657.28 193.10L660.76 197.64L658.38 197.64L656.06 194.57L655.02 195.86Q654.21 196.87 653.21 197.36Q652.22 197.86 651.16 197.86M651.30 195.91Q652.67 195.91 653.63 194.69L654.88 193.10L651.88 189.26L651.16 189.26Q650.03 189.26 649.37 189.97Q648.71 190.68 648.71 191.90L648.71 193.27Q648.71 194.50 649.42 195.20Q650.13 195.91 651.30 195.91" fill="white" fill-opacity="0.7"/>
<path d="M683.08 197.64L680.92 197.64L680.92 182.09L676.12 182.09L676.12 180.12L687.88 180.12L687.88 182.09L683.08 182.09" fill="white" fill-opacity="0.7"/>
<path d="M694.05 197.64L691.89 197.64L691.89 184.44L694.05 184.44L694.05 186.96L694.10 186.96Q694.26 185.69 695.18 184.94Q696.09 184.20 697.62 184.20Q699.69 184.20 700.80 185.44Q701.92 186.67 701.92 188.95L701.92 190.08L699.76 190.08L699.76 188.95Q699.76 186.07 696.95 186.07Q695.54 186.07 694.79 186.89Q694.05 187.70 694.05 189.24" fill="white" fill-opacity="0.7"/>
<path d="M709.65 197.88Q707.61 197.88 706.41 196.74Q705.21 195.60 705.21 193.75Q705.21 192.53 705.76 191.62Q706.31 190.70 707.30 190.19Q708.28 189.67 709.55 189.67L713.63 189.67L713.63 188.64Q713.63 186.07 710.82 186.07Q709.58 186.07 708.81 186.53Q708.04 186.98 707.99 187.80L705.83 187.80Q705.95 186.24 707.28 185.22Q708.62 184.20 710.82 184.20Q713.22 184.20 714.51 185.35Q715.79 186.50 715.79 188.57L715.79 197.64L713.66 197.64L713.66 195.24L713.61 195.24Q713.42 196.46 712.38 197.17Q711.35 197.88 709.65 197.88M710.18 196.06Q711.76 196.06 712.70 195.29Q713.63 194.52 713.63 193.20L713.63 191.35L709.79 191.35Q708.74 191.35 708.08 191.99Q707.42 192.62 707.42 193.68Q707.42 194.78 708.15 195.42Q708.88 196.06 710.18 196.06" fill="white" fill-opacity="0.7"/>
<path d="M731.32 197.64L720.04 197.64L720.04 195.67L724.72 195.67L724.72 186.41L720.52 186.41L720.52 184.44L726.88 184.44L726.88 195.67L731.32 195.67L731.32 197.64M725.56 182.06Q724.77 182.06 724.31 181.66Q723.86 181.25 723.86 180.55Q723.86 179.83 724.31 179.41Q724.77 178.99 725.56 178.99Q726.35 178.99 726.81 179.41Q727.26 179.83 727.26 180.55Q727.26 181.25 726.81 181.66Q726.35 182.06 725.56 182.06" fill="white" fill-opacity="0.7"/>
<path d="M736.77 197.64L734.61 197.64L734.61 184.44L736.77 184.44L736.77 186.96L736.79 186.96Q736.96 185.64 737.87 184.92Q738.78 184.20 740.30 184.20Q742.29 184.20 743.46 185.42Q744.64 186.65 744.64 188.76L744.64 197.64L742.48 197.64L742.48 189.14Q742.48 187.63 741.72 186.83Q740.97 186.02 739.67 186.02Q738.33 186.02 737.55 186.86Q736.77 187.70 736.77 189.24" fill="white" fill-opacity="0.7"/>
<path d="M760.12 197.64L748.84 197.64L748.84 195.67L753.52 195.67L753.52 186.41L749.32 186.41L749.32 184.44L755.68 184.44L755.68 195.67L760.12 195.67L760.12 197.64M754.36 182.06Q753.57 182.06 753.11 181.66Q752.66 181.25 752.66 180.55Q752.66 179.83 753.11 179.41Q753.57 178.99 754.36 178.99Q755.15 178.99 755.61 179.41Q756.06 179.83 756.06 180.55Q756.06 181.25 755.61 181.66Q755.15 182.06 754.36 182.06" fill="white" fill-opacity="0.7"/>
<path d="M765.57 197.64L763.41 197.64L763.41 184.44L765.57 184.44L765.57 186.96L765.59 186.96Q765.76 185.64 766.67 184.92Q767.58 184.20 769.10 184.20Q771.09 184.20 772.26 185.42Q773.44 186.65 773.44 188.76L773.44 197.64L771.28 197.64L771.28 189.14Q771.28 187.63 770.52 186.83Q769.77 186.02 768.47 186.02Q767.13 186.02 766.35 186.86Q765.57 187.70 765.57 189.24" fill="white" fill-opacity="0.7"/>
<path d="M783.16 201.96L779.46 201.96L779.46 199.99L783.18 199.99Q784.31 199.99 784.96 199.36Q785.61 198.72 785.61 197.64L785.61 196.44L785.66 194.28L785.58 194.28Q785.39 195.46 784.46 196.09Q783.52 196.73 782.10 196.73Q780.06 196.73 778.89 195.43Q777.71 194.14 777.71 191.88L777.71 189.10Q777.71 186.84 778.89 185.52Q780.06 184.20 782.10 184.20Q783.52 184.20 784.46 184.87Q785.39 185.54 785.58 186.72L785.63 186.72L785.63 184.44L787.77 184.44L787.77 197.64Q787.77 199.63 786.53 200.80Q785.30 201.96 783.16 201.96M782.75 194.93Q784.10 194.93 784.86 194.09Q785.63 193.25 785.63 191.76L785.63 189.24Q785.63 187.75 784.86 186.91Q784.10 186.07 782.75 186.07Q781.38 186.07 780.63 186.86Q779.87 187.66 779.87 189L779.87 192Q779.87 193.34 780.63 194.14Q781.38 194.93 782.75 194.93" fill="white" fill-opacity="0.7"/>
<path d="M816.28 197.64L806.92 197.64L806.92 195.67L810.50 195.67L810.50 182.09L806.92 182.09L806.92 180.12L816.28 180.12L816.28 182.09L812.70 182.09L812.70 195.67L816.28 195.67" fill="white" fill-opacity="0.7"/>
<path d="M823.17 197.64L821.01 197.64L821.01 184.44L823.17 184.44L823.17 186.96L823.19 186.96Q823.36 185.64 824.27 184.92Q825.18 184.20 826.70 184.20Q828.69 184.20 829.86 185.42Q831.04 186.65 831.04 188.76L831.04 197.64L828.88 197.64L828.88 189.14Q828.88 187.63 828.12 186.83Q827.37 186.02 826.07 186.02Q824.73 186.02 823.95 186.86Q823.17 187.70 823.17 189.24" fill="white" fill-opacity="0.7"/>
<path d="M840.93 197.83L839.87 197.83Q837.66 197.83 836.45 196.84Q835.24 195.84 835.24 194.02L837.40 194.02Q837.40 194.93 838.05 195.44Q838.70 195.96 839.87 195.96L840.93 195.96Q842.13 195.96 842.79 195.43Q843.45 194.90 843.45 193.94Q843.45 192.24 841.89 192.02L838.24 191.50Q836.90 191.30 836.15 190.38Q835.41 189.46 835.41 187.94Q835.41 186.22 836.60 185.23Q837.78 184.25 839.87 184.25L840.93 184.25Q842.85 184.25 844.06 185.20Q845.27 186.14 845.37 187.68L843.18 187.68Q843.14 186.98 842.52 186.53Q841.91 186.07 840.93 186.07L839.87 186.07Q838.77 186.07 838.14 186.58Q837.52 187.08 837.52 187.94Q837.52 189.34 838.79 189.53L842.20 190.01Q845.56 190.49 845.56 193.94Q845.56 195.79 844.35 196.81Q843.14 197.83 840.93 197.83" fill="white" fill-opacity="0.7"/>
<path d="M859.96 197.64L856.12 197.64Q854.49 197.64 853.50 196.69Q852.52 195.74 852.52 194.16L852.52 186.41L848.73 186.41L848.73 184.44L852.52 184.44L852.52 180.72L854.68 180.72L854.68 184.44L860.08 184.44L860.08 186.41L854.68 186.41L854.68 194.16Q854.68 194.83 855.08 195.25Q855.47 195.67 856.12 195.67L859.96 195.67" fill="white" fill-opacity="0.7"/>
<path d="M875.32 197.64L864.04 197.64L864.04 195.67L868.72 195.67L868.72 186.41L864.52 186.41L864.52 184.44L870.88 184.44L870.88 195.67L875.32 195.67L875.32 197.64M869.56 182.06Q868.77 182.06 868.31 181.66Q867.86 181.25 867.86 180.55Q867.86 179.83 868.31 179.41Q868.77 178.99 869.56 178.99Q870.35 178.99 870.81 179.41Q871.26 179.83 871.26 180.55Q871.26 181.25 870.81 181.66Q870.35 182.06 869.56 182.06" fill="white" fill-opacity="0.7"/>
<path d="M888.76 197.64L884.92 197.64Q883.29 197.64 882.30 196.69Q881.32 195.74 881.32 194.16L881.32 186.41L877.53 186.41L877.53 184.44L881.32 184.44L881.32 180.72L883.48 180.72L883.48 184.44L888.88 184.44L888.88 186.41L883.48 186.41L883.48 194.16Q883.48 194.83 883.88 195.25Q884.27 195.67 884.92 195.67L888.76 195.67" fill="white" fill-opacity="0.7"/>
<path d="M897.98 197.88Q895.70 197.88 894.33 196.52Q892.96 195.17 892.96 192.84L892.96 184.44L895.12 184.44L895.12 192.84Q895.12 194.28 895.89 195.13Q896.66 195.98 897.98 195.98Q899.32 195.98 900.10 195.13Q900.88 194.28 900.88 192.84L900.88 184.44L903.04 184.44L903.04 192.84Q903.04 195.17 901.65 196.52Q900.26 197.88 897.98 197.88" fill="white" fill-opacity="0.7"/>
<path d="M917.56 197.64L913.72 197.64Q912.09 197.64 911.10 196.69Q910.12 195.74 910.12 194.16L910.12 186.41L906.33 186.41L906.33 184.44L910.12 184.44L910.12 180.72L912.28 180.72L912.28 184.44L917.68 184.44L917.68 186.41L912.28 186.41L912.28 194.16Q912.28 194.83 912.68 195.25Q913.07 195.67 913.72 195.67L917.56 195.67" fill="white" fill-opacity="0.7"/>
<path d="M926.80 197.88Q924.47 197.88 923.04 196.48Q921.62 195.07 921.62 192.60L921.62 189.48Q921.62 187.01 923.04 185.60Q924.47 184.20 926.80 184.20Q928.36 184.20 929.52 184.82Q930.69 185.45 931.34 186.58Q931.98 187.70 931.98 189.24L931.98 191.59L923.73 191.59L923.73 192.84Q923.73 194.30 924.57 195.16Q925.41 196.01 926.80 196.01Q928 196.01 928.78 195.54Q929.56 195.07 929.73 194.28L931.89 194.28Q931.67 195.94 930.28 196.91Q928.89 197.88 926.80 197.88M923.73 189.24L923.73 189.91L929.87 189.91L929.87 189.24Q929.87 187.68 929.07 186.83Q928.26 185.98 926.80 185.98Q925.34 185.98 924.53 186.83Q923.73 187.68 923.73 189.24" fill="white" fill-opacity="0.7"/>
<path d="M941.27 201.48L939.04 201.48L940.36 194.14L942.95 194.14" fill="white" fill-opacity="0.7"/>
<path d="M966.62 197.64L964.53 197.64L964.53 180.12L967.72 180.12L969.95 187.70L972.28 180.12L975.47 180.12L975.47 197.64L973.38 197.64L973.38 189.36Q973.38 188.18 973.42 186.66Q973.46 185.14 973.53 183.58Q973.60 182.02 973.70 180.77L970.86 189.82L968.99 189.82L966.28 180.98Q966.47 182.76 966.54 184.87Q966.62 186.98 966.62 189.36" fill="white" fill-opacity="0.7"/>
<path d="M983.25 197.88Q981.21 197.88 980.01 196.74Q978.81 195.60 978.81 193.75Q978.81 192.53 979.36 191.62Q979.91 190.70 980.90 190.19Q981.88 189.67 983.15 189.67L987.23 189.67L987.23 188.64Q987.23 186.07 984.42 186.07Q983.18 186.07 982.41 186.53Q981.64 186.98 981.59 187.80L979.43 187.80Q979.55 186.24 980.88 185.22Q982.22 184.20 984.42 184.20Q986.82 184.20 988.11 185.35Q989.39 186.50 989.39 188.57L989.39 197.64L987.26 197.64L987.26 195.24L987.21 195.24Q987.02 196.46 985.98 197.17Q984.95 197.88 983.25 197.88M983.78 196.06Q985.36 196.06 986.30 195.29Q987.23 194.52 987.23 193.20L987.23 191.35L983.39 191.35Q982.34 191.35 981.68 191.99Q981.02 192.62 981.02 193.68Q981.02 194.78 981.75 195.42Q982.48 196.06 983.78 196.06" fill="white" fill-opacity="0.7"/>
<path d="M995.97 197.64L993.81 197.64L993.81 180.12L995.97 180.12L995.97 186.96L995.99 186.96Q996.16 185.64 997.07 184.92Q997.98 184.20 999.50 184.20Q1001.49 184.20 1002.66 185.42Q1003.84 186.65 1003.84 188.76L1003.84 197.64L1001.68 197.64L1001.68 189.12Q1001.68 187.63 1000.92 186.83Q1000.17 186.02 998.87 186.02Q997.53 186.02 996.75 186.86Q995.97 187.70 995.97 189.24" fill="white" fill-opacity="0.7"/>
<path d="M1012.05 197.88Q1010.01 197.88 1008.81 196.74Q1007.61 195.60 1007.61 193.75Q1007.61 192.53 1008.16 191.62Q1008.71 190.70 1009.70 190.19Q1010.68 189.67 1011.95 189.67L1016.03 189.67L1016.03 188.64Q1016.03 186.07 1013.22 186.07Q1011.98 186.07 1011.21 186.53Q1010.44 186.98 1010.39 187.80L1008.23 187.80Q1008.35 186.24 1009.68 185.22Q1011.02 184.20 1013.22 184.20Q1015.62 184.20 1016.91 185.35Q1018.19 186.50 1018.19 188.57L1018.19 197.64L1016.06 197.64L1016.06 195.24L1016.01 195.24Q1015.82 196.46 1014.78 197.17Q1013.75 197.88 1012.05 197.88M1012.58 196.06Q1014.16 196.06 1015.10 195.29Q1016.03 194.52 1016.03 193.20L1016.03 191.35L1012.19 191.35Q1011.14 191.35 1010.48 191.99Q1009.82 192.62 1009.82 193.68Q1009.82 194.78 1010.55 195.42Q1011.28 196.06 1012.58 196.06" fill="white" fill-opacity="0.7"/>
<path d="M1025.25 197.64L1023.09 197.64L1023.09 184.44L1025.25 184.44L1025.25 186.96L1025.30 186.96Q1025.46 185.69 1026.38 184.94Q1027.29 184.20 1028.82 184.20Q1030.89 184.20 1032 185.44Q1033.12 186.67 1033.12 188.95L1033.12 190.08L1030.96 190.08L1030.96 188.95Q1030.96 186.07 1028.15 186.07Q1026.74 186.07 1025.99 186.89Q1025.25 187.70 1025.25 189.24" fill="white" fill-opacity="0.7"/>
<path d="M1040.85 197.88Q1038.81 197.88 1037.61 196.74Q1036.41 195.60 1036.41 193.75Q1036.41 192.53 1036.96 191.62Q1037.51 190.70 1038.50 190.19Q1039.48 189.67 1040.75 189.67L1044.83 189.67L1044.83 188.64Q1044.83 186.07 1042.02 186.07Q1040.78 186.07 1040.01 186.53Q1039.24 186.98 1039.19 187.80L1037.03 187.80Q1037.15 186.24 1038.48 185.22Q1039.82 184.20 1042.02 184.20Q1044.42 184.20 1045.71 185.35Q1046.99 186.50 1046.99 188.57L1046.99 197.64L1044.86 197.64L1044.86 195.24L1044.81 195.24Q1044.62 196.46 1043.58 197.17Q1042.55 197.88 1040.85 197.88M1041.38 196.06Q1042.96 196.06 1043.90 195.29Q1044.83 194.52 1044.83 193.20L1044.83 191.35L1040.99 191.35Q1039.94 191.35 1039.28 191.99Q1038.62 192.62 1038.62 193.68Q1038.62 194.78 1039.35 195.42Q1040.08 196.06 1041.38 196.06" fill="white" fill-opacity="0.7"/>
<path d="M1056.93 197.83L1055.87 197.83Q1053.66 197.83 1052.45 196.84Q1051.24 195.84 1051.24 194.02L1053.40 194.02Q1053.40 194.93 1054.05 195.44Q1054.70 195.96 1055.87 195.96L1056.93 195.96Q1058.13 195.96 1058.79 195.43Q1059.45 194.90 1059.45 193.94Q1059.45 192.24 1057.89 192.02L1054.24 191.50Q1052.90 191.30 1052.15 190.38Q1051.41 189.46 1051.41 187.94Q1051.41 186.22 1052.60 185.23Q1053.78 184.25 1055.87 184.25L1056.93 184.25Q1058.85 184.25 1060.06 185.20Q1061.27 186.14 1061.37 187.68L1059.18 187.68Q1059.14 186.98 1058.52 186.53Q1057.91 186.07 1056.93 186.07L1055.87 186.07Q1054.77 186.07 1054.14 186.58Q1053.52 187.08 1053.52 187.94Q1053.52 189.34 1054.79 189.53L1058.20 190.01Q1061.56 190.49 1061.56 193.94Q1061.56 195.79 1060.35 196.81Q1059.14 197.83 1056.93 197.83" fill="white" fill-opacity="0.7"/>
<path d="M1067.97 197.64L1065.81 197.64L1065.81 180.12L1067.97 180.12L1067.97 186.96L1067.99 186.96Q1068.16 185.64 1069.07 184.92Q1069.98 184.20 1071.50 184.20Q1073.49 184.20 1074.66 185.42Q1075.84 186.65 1075.84 188.76L1075.84 197.64L1073.68 197.64L1073.68 189.12Q1073.68 187.63 1072.92 186.83Q1072.17 186.02 1070.87 186.02Q1069.53 186.02 1068.75 186.86Q1067.97 187.70 1067.97 189.24" fill="white" fill-opacity="0.7"/>
<path d="M1090.36 197.64L1086.52 197.64Q1084.89 197.64 1083.90 196.69Q1082.92 195.74 1082.92 194.16L1082.92 186.41L1079.13 186.41L1079.13 184.44L1082.92 184.44L1082.92 180.72L1085.08 180.72L1085.08 184.44L1090.48 184.44L1090.48 186.41L1085.08 186.41L1085.08 194.16Q1085.08 194.83 1085.48 195.25Q1085.87 195.67 1086.52 195.67L1090.36 195.67" fill="white" fill-opacity="0.7"/>
<path d="M1097.25 197.64L1095.09 197.64L1095.09 184.44L1097.25 184.44L1097.25 186.96L1097.30 186.96Q1097.46 185.69 1098.38 184.94Q1099.29 184.20 1100.82 184.20Q1102.89 184.20 1104 185.44Q1105.12 186.67 1105.12 188.95L1105.12 190.08L1102.96 190.08L1102.96 188.95Q1102.96 186.07 1100.15 186.07Q1098.74 186.07 1097.99 186.89Q1097.25 187.70 1097.25 189.24" fill="white" fill-opacity="0.7"/>
<path d="M1112.85 197.88Q1110.81 197.88 1109.61 196.74Q1108.41 195.60 1108.41 193.75Q1108.41 192.53 1108.96 191.62Q1109.51 190.70 1110.50 190.19Q1111.48 189.67 1112.75 189.67L1116.83 189.67L1116.83 188.64Q1116.83 186.07 1114.02 186.07Q1112.78 186.07 1112.01 186.53Q1111.24 186.98 1111.19 187.80L1109.03 187.80Q1109.15 186.24 1110.48 185.22Q1111.82 184.20 1114.02 184.20Q1116.42 184.20 1117.71 185.35Q1118.99 186.50 1118.99 188.57L1118.99 197.64L1116.86 197.64L1116.86 195.24L1116.81 195.24Q1116.62 196.46 1115.58 197.17Q1114.55 197.88 1112.85 197.88M1113.38 196.06Q1114.96 196.06 1115.90 195.29Q1116.83 194.52 1116.83 193.20L1116.83 191.35L1112.99 191.35Q1111.94 191.35 1111.28 191.99Q1110.62 192.62 1110.62 193.68Q1110.62 194.78 1111.35 195.42Q1112.08 196.06 1113.38 196.06" fill="white" fill-opacity="0.7"/>
<path d="M76.11 136.06L66.42 136.06L84.56 65.98L97.14 65.98L115.18 136.06L105.49 136.06L101.07 117.82L80.53 117.82L76.11 136.06M87.54 88.92L82.45 109.95L99.15 109.95L94.16 89.02Q92.72 83.26 91.86 79.23Q90.99 75.20 90.80 73.76Q90.61 75.20 89.74 79.23Q88.88 83.26 87.54 88.92M137.55 136.06L128.05 136.06L128.05 65.98L150.80 65.98Q157.52 65.98 162.42 68.57Q167.31 71.16 170 75.82Q172.69 80.48 172.69 86.91Q172.69 93.24 170 97.90Q167.31 102.56 162.37 105.15Q157.42 107.74 150.80 107.74L137.55 107.74L137.55 136.06M137.55 74.43L137.55 99.29L150.80 99.29Q156.37 99.29 159.63 95.88Q162.90 92.48 162.90 86.91Q162.90 81.24 159.63 77.84Q156.37 74.43 150.80 74.43L137.55 74.43M225.10 136.06L186.90 136.06L186.90 127.42L201.20 127.42L201.20 74.62L186.90 74.62L186.90 65.98L225.10 65.98L225.10 74.62L210.80 74.62L210.80 127.42L225.10 127.42L225.10 136.06M263.98 137.02Q253.62 137.02 247.47 131.60Q241.33 126.17 241.33 116.67L250.83 116.67Q250.83 122.24 254.38 125.40Q257.94 128.57 263.98 128.57Q269.74 128.57 273.15 125.36Q276.56 122.14 276.56 116.76Q276.56 112.73 274.35 109.71Q272.14 106.68 268.11 105.63L257.74 102.84Q250.93 100.92 246.94 95.88Q242.96 90.84 242.96 83.93Q242.96 78.27 245.50 74Q248.05 69.72 252.66 67.37Q257.26 65.02 263.31 65.02Q269.46 65.02 274.11 67.37Q278.77 69.72 281.36 73.95Q283.95 78.17 283.95 83.74L274.54 83.74Q274.54 79.13 271.42 76.25Q268.30 73.37 263.31 73.37Q258.32 73.37 255.30 76.25Q252.27 79.13 252.27 83.74Q252.27 87.48 254.29 90.03Q256.30 92.57 259.95 93.63L270.61 96.51Q277.81 98.43 281.84 103.85Q285.87 109.28 285.87 116.76Q285.87 122.91 283.18 127.47Q280.50 132.03 275.55 134.52Q270.61 137.02 263.98 137.02M342.51 136.06L301.71 136.06L301.71 65.98L342.51 65.98L342.51 74.52L311.12 74.52L311.12 95.36L339.15 95.36L339.15 103.61L311.12 103.61L311.12 127.52L342.51 127.52L342.51 136.06M383.60 136.06L374.10 136.06L374.10 74.62L355.09 74.62L355.09 65.98L402.51 65.98L402.51 74.62L383.60 74.62L383.60 136.06M436.40 137.02Q426.51 137.02 421.18 131.55Q415.86 126.08 415.86 116.67L415.86 65.98L425.36 65.98L425.36 116.67Q425.36 122.24 428.10 125.40Q430.83 128.57 436.40 128.57Q441.87 128.57 444.70 125.40Q447.54 122.24 447.54 116.67L447.54 65.98L457.04 65.98L457.04 116.67Q457.04 126.17 451.71 131.60Q446.38 137.02 436.40 137.02M551.98 137.02Q542.29 137.02 536.58 131.60Q530.86 126.17 530.86 116.67L530.86 85.28Q530.86 75.87 536.58 70.44Q542.29 65.02 551.98 65.02Q561.58 65.02 567.30 70.49Q573.01 75.96 573.01 85.28L563.50 85.28Q563.50 79.61 560.43 76.54Q557.36 73.47 551.98 73.47Q546.51 73.47 543.44 76.54Q540.37 79.61 540.37 85.28L540.37 116.67Q540.37 122.43 543.44 125.50Q546.51 128.57 551.98 128.57Q557.36 128.57 560.43 125.50Q563.50 122.43 563.50 116.67L563.50 107.55L549.87 107.55L549.87 99.10L573.01 99.10L573.01 116.67Q573.01 126.08 567.30 131.55Q561.58 137.02 551.98 137.02M609.20 137.02Q599.60 137.02 594.03 131.45Q588.46 125.88 588.46 115.71L588.46 86.24Q588.46 76.16 594.03 70.59Q599.60 65.02 609.20 65.02Q618.80 65.02 624.37 70.54Q629.94 76.06 629.94 86.24L629.94 115.71Q629.94 125.88 624.37 131.45Q618.80 137.02 609.20 137.02M609.20 128.57Q614.58 128.57 617.50 125.50Q620.43 122.43 620.43 116.67L620.43 85.28Q620.43 79.61 617.55 76.54Q614.67 73.47 609.20 73.47Q603.73 73.47 600.85 76.54Q597.97 79.61 597.97 85.28L597.97 116.67Q597.97 122.43 600.90 125.50Q603.82 128.57 609.20 128.57M673.14 136.06L660.37 136.06L642.42 65.98L652.21 65.98L663.82 113.21Q664.98 117.72 665.79 121.90Q666.61 126.08 666.99 128.28Q667.28 126.08 668.19 121.85Q669.10 117.63 670.16 113.12L681.39 65.98L691.18 65.98L673.14 136.06M783.34 136.06L761.74 136.06L761.74 65.98LNaN 65.98Q791.70 65.98 797.31 70.83Q802.93 75.68 802.93 84.12Q802.93 89.60 799.52 93.87Q796.11 98.14 790.74 99.10L790.74 99.39Q794.77 99.87 797.89 102.27Q801.01 104.67 802.78 108.36Q804.56 112.06 804.56 116.48Q804.56 125.50 798.85 130.78Q793.14 136.06 783.34 136.06M771.06 74.33L771.06 95.55L781.90 95.55Q787.28 95.55 790.35 92.72Q793.42 89.88 793.42 84.99Q793.42 80 790.35 77.16Q787.28 74.33 NaN 74.33L771.06 74.33M771.06 103.61L771.06 127.71L782.48 127.71Q788.34 127.71 791.70 124.59Q795.06 121.47 795.06 116.09Q795.06 110.52 791.70 107.07Q788.34 103.61 782.48 103.61L771.06 103.61M824.91 136.06L815.22 136.06L833.36 65.98L845.94 65.98L863.98 136.06L854.29 136.06L849.87 117.82L829.33 117.82L824.91 136.06M836.34 88.92L831.25 109.95L847.95 109.95L842.96 89.02Q841.52 83.26 840.66 79.23Q839.79 75.20 839.60 73.76Q839.41 75.20 838.54 79.23Q837.68 83.26 836.34 88.92M886.35 136.06L876.94 136.06L876.94 65.98L898.64 65.98Q905.07 65.98 909.87 68.52Q914.67 71.07 917.36 75.63Q920.05 80.19 920.05 86.33Q920.05 93.44 916.45 98.52Q912.85 103.61 906.90 105.72L921.01 136.06L910.54 136.06L897.20 106.78L886.35 106.78L886.35 136.06M886.35 74.43L886.35 98.33L898.64 98.33Q904.02 98.33 907.14 95.07Q910.26 91.80 910.26 86.43Q910.26 80.96 907.09 77.69Q903.92 74.43 898.64 74.43L886.35 74.43M959.60 136.06L950.10 136.06L950.10 74.62L931.09 74.62L931.09 65.98L978.51 65.98L978.51 74.62L959.60 74.62L959.60 136.06M1031.50 136.06L993.30 136.06L993.30 127.42L1007.60 127.42L1007.60 74.62L993.30 74.62L993.30 65.98L1031.50 65.98L1031.50 74.62L1017.20 74.62L1017.20 127.42L1031.50 127.42" fill="url(#paint2_linear_0_1)"/>
<g id="Group 1">
<rect id="Rectangle 1" x="26" y="168" width="12" height="184" rx="5" fill="url(#paint3_linear_0_1)" fill-opacity="0.9"/>
</g>
<g id="Group 1_2">
<rect id="Rectangle 2" x="26" y="38" width="12" height="119" rx="5" fill="url(#paint4_linear_0_1)" fill-opacity="0.9"/>
</g>
<ellipse id="Ellipse 1" cx="148.5" cy="573" rx="215.5" ry="214" fill="url(#paint5_linear_0_1)" fill-opacity="0.4"/>
<rect id="Rectangle 3" x="1229" y="48" width="300" height="300" rx="25" fill="#FFFBFB" fill-opacity="0.9"/>
<g id="placeholder-logo"><g transform="translate(1229,48) translate(0.0,60.0) scale(1.2000)"><g fill="#666666">
  <path d="m88.05,27.65c-3.15,4 -3.2,51.2 -0.05,54.35c2.75,2.75 71.7,3.15 74.45,0.45c2.85,-2.9 2.3,-53.85 -0.65,-55.9c-1.95,-1.35 -7.15,-1.55 -36.95,-1.55l-34.7,0l-2.1,2.65zm69.45,3.35c0.65,0 1,8.6 1,23.75l0,23.75l-33,0l-33,0l-0.25,-23c-0.15,-12.6 -0.1,-23.45 0.15,-24.1c0.35,-0.85 8.9,-1.05 32.25,-0.75c17.55,0.2 32.3,0.35 32.85,0.35z"/>
  <path d="m99.15,37.3c-6.85,7.35 4.25,17.35 11.4,10.25c1.35,-1.35 2.45,-3.65 2.45,-5.05c0,-6.45 -9.35,-9.95 -13.85,-5.2z"/>
  <path d="m135,42.5c-0.7,0.85 -5.25,5.15 -10.1,9.6l-8.85,8.1l-3.2,-3.2l-3.15,-3.15l-6.35,6.3c-5.55,5.5 -6.35,6.75 -6.35,10.05l0,3.8l28.5,0l28.5,0l0,-8.6l0,-8.55l-8.15,-7.7c-9.35,-8.85 -9.15,-8.7 -10.85,-6.65zm7.25,15.2c0.95,0.9 1.75,2.9 1.75,4.45c6.35,-5.05 4.75,-7.15 4.9,-11.55c0.95,0 0,0 0,0l-6.65,7.1z"/>
  <path d="m53.65,110.75c0.1,4.8 0.45,8.65 0.75,8.5c0.35,-0.15 1.3,-0.25 2.1,-0.25c1.1,0 1.5,-1.2 1.5,-4.75l0,-4.75l3.25,5c4.9,7.5 6.2,6.75 6.55,-3.75c0.25,-8.15 0.15,-8.75 -1.7,-8.75c-1.65,0 -2.05,0.8 -2.3,4.75l-0.3,4.75l-2.8,-4.75c-4.85,-8.25 -7.25,-6.9 -7.05,4z"/>
  <path d="m91,108.9c0,9.65 0.3,10.1 6.1,10.1c5.8,0 7.15,-2.65 1.65,-3.2l-3.25,-0.3l-0.3,-6.75c-0.25,-5.95 -0.55,-6.75 -2.25,-6.75c-1.75,0 -1.95,0.7 -1.95,6.9z"/>
  <path d="m151,102.45c0,0.25 1,2.15 2.25,4.2c1.2,2.1 2.45,5.8 2.75,8.25c0.65,5.9 4,6.95 4,1.25c0.05,-2.1 1.25,-5.85 2.95,-8.9l2.9,-5.25l-2.5,0c-1.8,0 -2.8,0.85 -3.75,3.1l-1.3,3.05l-1.25,-3.05c-1.1,-2.6 -6.05,-4.8 -6.05,-2.65z"/>
  <path d="m191,107.45c0,9.05 3.4,8.85 4.25,-0.2c0.45,-5 0.35,-5.25 -1.9,-5.25c-2.2,0 -2.35,0.4 -2.35,5.45z"/>
  <path d="m180.8,104.75c-1.3,5.35 0.65,13.6 3.45,14.35c2.3,0.6 2.75,0.4 2.75,-1.2c0,-1.05 -0.45,-1.9 -1,-1.9c-0.55,0 -1,-1.6 -1,-3.5c0,-1.95 0.45,-3.5 1,-3.5c0.55,0 1,-0.7 1,-1.5c0,-0.85 -0.45,-1.5 -1,-1.5c-0.55,0 -1,-0.7 -1,-1.5c0,-2.1 -3.65,-1.9 -4.2,0.25z"/>
  <path d="m71.55,106.55c-2.2,2.25 -2.05,9.7 0.3,11.8c4.5,4.1 10.15,0.75 10.15,-6.1c0,-4.85 -2,-7.25 -6,-7.25c-1.55,0 -3.55,0.7 -4.45,1.55zm6.25,5.8c0.25,3.05 0,3.65 -1.6,3.65c-2.3,0 -3.25,-2.65 -2.05,-5.85c1.25,-3.35 3.3,-2.1 3.65,2.2z"/>
  <path d="m105.75,106.1c-2.5,1.45 -2.45,9.95 0.1,12.25c4.3,3.9 10.15,0.35 10.15,-6.2c0,-6 -5.15,-9.05 -10.25,-6.05zm6.05,6.25c0.25,3.05 0,3.65 -1.6,3.65c-2.3,0 -3.25,-2.65 -2.05,-5.85c1.25,-3.35 3.3,-2.1 3.65,2.2z"/>
  <path d="m119.2,106.2c-3.8,3.8 -0.4,12.55 4.4,11.35c1.9,-0.45 2.45,-0.3 2.15,0.65c-0.25,0.7 -1.55,1.2 -2.85,1.1c-4.05,-0.3 -5.35,0.45 -3.85,2.25c0.85,1.05 2.6,1.45 5.35,1.25l4.1,-0.3l0.3,-8.75l0.3,-8.75l-4.35,0c-2.4,0 -4.9,0.55 -5.55,1.2zm6.6,4.45c0.4,2.85 -2.15,4.85 -3.75,2.95c-0.9,-1.1 -0.9,-2 -0.05,-3.6c1.35,-2.5 3.4,-2.15 3.8,0.65z"/>
  <path d="m133.55,106.55c-2.2,2.25 -2.05,9.7 0.3,11.8c4.5,4.1 10.15,0.75 10.15,-6.1c0,-4.85 -2,-7.25 -6,-7.25c-1.55,0 -3.55,0.7 -4.45,1.55zm6.25,5.8c0.25,3.05 0,3.65 -1.6,3.65c-2.3,0 -3.25,-2.65 -2.05,-5.85c1.25,-3.35 3.3,-2.1 3.65,2.2z"/>
  <path d="m167.65,106.85c-3.9,4.3 -0.75,13.15 4.7,13.15c2.4,0 5.65,-2.75 5.65,-4.85c0,-1.4 -2.65,-1.55 -3.5,-0.15c-0.95,1.55 -4.5,1.15 -4.5,-0.5c0,-1.1 1.1,-1.5 4,-1.5c3.15,0 4,-0.35 4,-1.8c0,-5.3 -6.85,-8.25 -10.35,-4.35z"/>
  <path d="m191,117.5c0,2.15 0.4,2.6 2.25,2.3c1.5,-0.2 2.25,-1 2.25,-2.3c0,-1.3 -0.75,-2.1 -2.25,-2.3c-1.85,-0.3 -2.25,0.15 -2.25,2.3z"/>
 </g></g></g>
</g>
<defs>
<linearGradient id="paint0_linear_0_1" x1="0" y1="198" x2="1584" y2="198" gradientUnits="userSpaceOnUse">
<stop stop-color="#3D052C"/>
<stop offset="1"/>
</linearGradient>
<linearGradient id="paint1_linear_0_1" x1="323" y1="-224" x2="323" y2="352" gradientUnits="userSpaceOnUse">
<stop stop-color="#28F6F2" stop-opacity="0.4"/>
<stop offset="1" stop-color="#17908E" stop-opacity="0.7"/>
</linearGradient>
<linearGradient id="paint2_linear_0_1" x1="148.5" y1="38" x2="148.5" y2="140" gradientUnits="userSpaceOnUse">
<stop stop-color="white"/>
<stop offset="1" stop-color="#999999"/>
</linearGradient>
<linearGradient id="paint3_linear_0_1" x1="38" y1="260" x2="26" y2="260" gradientUnits="userSpaceOnUse">
<stop stop-color="#D9D9D9"/>
<stop offset="1" stop-color="#737373"/>
</linearGradient>
<linearGradient id="paint4_linear_0_1" x1="38" y1="97.5" x2="26" y2="97.5" gradientUnits="userSpaceOnUse">
<stop stop-color="#D9D9D9"/>
<stop offset="1" stop-color="#737373"/>
</linearGradient>
<linearGradient id="paint5_linear_0_1" x1="27.5" y1="434.5" x2="148.5" y2="787" gradientUnits="userSpaceOnUse">
<stop stop-color="#2E21BC"/>
<stop offset="1" stop-color="#150F56"/>
</linearGradient>
<clipPath id="clip0_0_1">
<rect width="1584" height="396" fill="white"/>
</clipPath>
</defs>
</svg>
